<?xml version="1.0" encoding="UTF-8" standalone="no"?>
<!DOCTYPE svg PUBLIC "-//W3C//DTD SVG 1.1//EN"
 "http://www.w3.org/Graphics/SVG/1.1/DTD/svg11.dtd">
<!-- Generated by graphviz version 2.38.0 (20140413.2041)
 -->
<!-- Title: template_method Pages: 1 -->
<svg width="206pt" height="262pt"
 viewBox="0.00 0.00 206.27 262.00" xmlns="http://www.w3.org/2000/svg" xmlns:xlink="http://www.w3.org/1999/xlink">
<g id="graph0" class="graph" transform="scale(1 1) rotate(0) translate(4 258)">
<title>template_method</title>
<polygon fill="white" stroke="none" points="-4,4 -4,-258 202.272,-258 202.272,4 -4,4"/>
<!-- AbstractDisplay -->
<g id="node1" class="node"><title>AbstractDisplay</title>
<polygon fill="none" stroke="black" points="43.8931,-145.5 43.8931,-253.5 150.873,-253.5 150.873,-145.5 43.8931,-145.5"/>
<text text-anchor="middle" x="97.3828" y="-238.3" font-family="Times,serif" font-size="14.00">AbstractDisplay</text>
<polyline fill="none" stroke="black" points="43.8931,-231.5 150.873,-231.5 "/>
<text text-anchor="middle" x="97.3828" y="-216.3" font-family="Times,serif" font-size="14.00"> </text>
<polyline fill="none" stroke="black" points="43.8931,-209.5 150.873,-209.5 "/>
<text text-anchor="start" x="51.8931" y="-194.3" font-family="Times,serif" font-size="14.00">open</text>
<text text-anchor="start" x="51.8931" y="-180.3" font-family="Times,serif" font-size="14.00">print</text>
<text text-anchor="start" x="51.8931" y="-166.3" font-family="Times,serif" font-size="14.00">close</text>
<text text-anchor="start" x="51.8931" y="-152.3" font-family="Times,serif" font-size="14.00">display</text>
</g>
<!-- CharDisplay -->
<g id="node2" class="node"><title>CharDisplay</title>
<polygon fill="none" stroke="black" points="0,-7.5 0,-101.5 86.7656,-101.5 86.7656,-7.5 0,-7.5"/>
<text text-anchor="middle" x="43.3828" y="-86.3" font-family="Times,serif" font-size="14.00">CharDisplay</text>
<polyline fill="none" stroke="black" points="0,-79.5 86.7656,-79.5 "/>
<text text-anchor="middle" x="43.3828" y="-64.3" font-family="Times,serif" font-size="14.00"> </text>
<polyline fill="none" stroke="black" points="0,-57.5 86.7656,-57.5 "/>
<text text-anchor="start" x="8" y="-42.3" font-family="Times,serif" font-size="14.00">open</text>
<text text-anchor="start" x="8" y="-28.3" font-family="Times,serif" font-size="14.00">print</text>
<text text-anchor="start" x="8" y="-14.3" font-family="Times,serif" font-size="14.00">close</text>
</g>
<!-- AbstractDisplay&#45;&gt;CharDisplay -->
<g id="edge1" class="edge"><title>AbstractDisplay&#45;&gt;CharDisplay</title>
<path fill="none" stroke="black" d="M73.6864,-135.748C69.3703,-124.319 64.9398,-112.586 60.8452,-101.743"/>
<polygon fill="none" stroke="black" points="70.4681,-137.133 77.2752,-145.252 77.0167,-134.66 70.4681,-137.133"/>
</g>
<!-- StringDisplay -->
<g id="node3" class="node"><title>StringDisplay</title>
<polygon fill="none" stroke="black" points="104.493,-0.5 104.493,-108.5 198.272,-108.5 198.272,-0.5 104.493,-0.5"/>
<text text-anchor="middle" x="151.383" y="-93.3" font-family="Times,serif" font-size="14.00">StringDisplay</text>
<polyline fill="none" stroke="black" points="104.493,-86.5 198.272,-86.5 "/>
<text text-anchor="middle" x="151.383" y="-71.3" font-family="Times,serif" font-size="14.00"> </text>
<polyline fill="none" stroke="black" points="104.493,-64.5 198.272,-64.5 "/>
<text text-anchor="start" x="112.493" y="-49.3" font-family="Times,serif" font-size="14.00">open</text>
<text text-anchor="start" x="112.493" y="-35.3" font-family="Times,serif" font-size="14.00">print</text>
<text text-anchor="start" x="112.493" y="-21.3" font-family="Times,serif" font-size="14.00">close</text>
<text text-anchor="start" x="112.493" y="-7.3" font-family="Times,serif" font-size="14.00">printLine</text>
</g>
<!-- AbstractDisplay&#45;&gt;StringDisplay -->
<g id="edge2" class="edge"><title>AbstractDisplay&#45;&gt;StringDisplay</title>
<path fill="none" stroke="black" d="M121.122,-135.634C124.504,-126.679 127.955,-117.541 131.258,-108.792"/>
<polygon fill="none" stroke="black" points="117.749,-134.66 117.49,-145.252 124.298,-137.133 117.749,-134.66"/>
</g>
</g>
</svg>
