<?xml version="1.0" encoding="UTF-8" standalone="no"?>
<!DOCTYPE svg PUBLIC "-//W3C//DTD SVG 1.1//EN"
 "http://www.w3.org/Graphics/SVG/1.1/DTD/svg11.dtd">
<!-- Generated by graphviz version 2.38.0 (20140413.2041)
 -->
<!-- Title: iterator Pages: 1 -->
<svg width="310pt" height="311pt"
 viewBox="0.00 0.00 310.00 311.00" xmlns="http://www.w3.org/2000/svg" xmlns:xlink="http://www.w3.org/1999/xlink">
<g id="graph0" class="graph" transform="scale(1 1) rotate(0) translate(4 307)">
<title>iterator</title>
<polygon fill="white" stroke="none" points="-4,4 -4,-307 306,-307 306,4 -4,4"/>
<!-- Aggregator -->
<g id="node1" class="node"><title>Aggregator</title>
<polygon fill="none" stroke="black" points="18.5,-240 18.5,-297 91.5,-297 91.5,-240 18.5,-240"/>
<text text-anchor="middle" x="55" y="-285" font-family="monospace" font-size="10.00">Aggregator</text>
<polyline fill="none" stroke="black" points="18.5,-278 91.5,-278 "/>
<text text-anchor="middle" x="55" y="-266" font-family="monospace" font-size="10.00"> </text>
<polyline fill="none" stroke="black" points="18.5,-259 91.5,-259 "/>
<text text-anchor="start" x="26.5" y="-247" font-family="monospace" font-size="10.00">Interface()</text>
</g>
<!-- BookShelf -->
<g id="node2" class="node"><title>BookShelf</title>
<polygon fill="none" stroke="black" points="0,-95.5 0,-196.5 110,-196.5 110,-95.5 0,-95.5"/>
<text text-anchor="middle" x="55" y="-184.5" font-family="monospace" font-size="10.00">BookShelf</text>
<polyline fill="none" stroke="black" points="0,-177.5 110,-177.5 "/>
<text text-anchor="start" x="8" y="-165.5" font-family="monospace" font-size="10.00">books</text>
<text text-anchor="start" x="8" y="-154.5" font-family="monospace" font-size="10.00">last</text>
<polyline fill="none" stroke="black" points="0,-147.5 110,-147.5 "/>
<text text-anchor="start" x="8" y="-135.5" font-family="monospace" font-size="10.00">BookAt(int) Book</text>
<text text-anchor="start" x="8" y="-124.5" font-family="monospace" font-size="10.00">AppendBook(Book)</text>
<text text-anchor="start" x="8" y="-113.5" font-family="monospace" font-size="10.00">Vokumes() int</text>
<text text-anchor="start" x="8" y="-102.5" font-family="monospace" font-size="10.00">Iterator() Iterator</text>
</g>
<!-- Aggregator&#45;&gt;BookShelf -->
<g id="edge1" class="edge"><title>Aggregator&#45;&gt;BookShelf</title>
<path fill="none" stroke="black" d="M55,-229.798C55,-219.33 55,-207.801 55,-196.757"/>
<polygon fill="none" stroke="black" points="55,-239.855 58.5001,-229.855 55.0001,-229.855 55,-239.855"/>
</g>
<!-- Iterator -->
<g id="node4" class="node"><title>Iterator</title>
<polygon fill="none" stroke="black" points="188,-234.5 188,-302.5 296,-302.5 296,-234.5 188,-234.5"/>
<text text-anchor="middle" x="242" y="-290.5" font-family="monospace" font-size="10.00">Iterator</text>
<polyline fill="none" stroke="black" points="188,-283.5 296,-283.5 "/>
<text text-anchor="middle" x="242" y="-271.5" font-family="monospace" font-size="10.00"> </text>
<polyline fill="none" stroke="black" points="188,-264.5 296,-264.5 "/>
<text text-anchor="start" x="196" y="-252.5" font-family="monospace" font-size="10.00">hasNext() bool</text>
<text text-anchor="middle" x="242" y="-241.5" font-family="monospace" font-size="10.00">next() interface{}</text>
</g>
<!-- Aggregator&#45;&gt;Iterator -->
<g id="edge4" class="edge"><title>Aggregator&#45;&gt;Iterator</title>
<path fill="none" stroke="black" d="M91.9452,-268.5C116.308,-268.5 148.878,-268.5 177.447,-268.5"/>
<polygon fill="black" stroke="black" points="187.769,-268.5 177.769,-273 182.769,-268.5 177.769,-268.5 177.769,-268.5 177.769,-268.5 182.769,-268.5 177.769,-264 187.769,-268.5 187.769,-268.5"/>
<text text-anchor="middle" x="139.75" y="-274.5" font-family="monospace" font-size="10.00">Creates ▶</text>
</g>
<!-- Book -->
<g id="node3" class="node"><title>Book</title>
<polygon fill="none" stroke="black" points="13.5,-0.5 13.5,-57.5 96.5,-57.5 96.5,-0.5 13.5,-0.5"/>
<text text-anchor="middle" x="55" y="-45.5" font-family="monospace" font-size="10.00">Book</text>
<polyline fill="none" stroke="black" points="13.5,-38.5 96.5,-38.5 "/>
<text text-anchor="start" x="21.5" y="-26.5" font-family="monospace" font-size="10.00">name</text>
<polyline fill="none" stroke="black" points="13.5,-19.5 96.5,-19.5 "/>
<text text-anchor="start" x="21.5" y="-7.5" font-family="monospace" font-size="10.00">Name() string</text>
</g>
<!-- BookShelf&#45;&gt;Book -->
<g id="edge2" class="edge"><title>BookShelf&#45;&gt;Book</title>
<path fill="none" stroke="black" d="M55,-83.0899C55,-77.9468 55,-72.8511 55,-67.9686"/>
<polygon fill="none" stroke="black" points="55.0001,-83.2282 59,-89.2282 55,-95.2282 51,-89.2281 55.0001,-83.2282"/>
<polygon fill="black" stroke="black" points="55,-57.6848 59.5001,-67.6848 55,-62.6848 55.0001,-67.6848 55.0001,-67.6848 55.0001,-67.6848 55,-62.6848 50.5001,-67.6849 55,-57.6848 55,-57.6848"/>
</g>
<!-- BookShelfIterator -->
<g id="node5" class="node"><title>BookShelfIterator</title>
<polygon fill="none" stroke="black" points="182,-106.5 182,-185.5 302,-185.5 302,-106.5 182,-106.5"/>
<text text-anchor="middle" x="242" y="-173.5" font-family="monospace" font-size="10.00">BookShelfIterator</text>
<polyline fill="none" stroke="black" points="182,-166.5 302,-166.5 "/>
<text text-anchor="start" x="190" y="-154.5" font-family="monospace" font-size="10.00">bookShelf *BookShelf</text>
<text text-anchor="start" x="190" y="-143.5" font-family="monospace" font-size="10.00">index int</text>
<polyline fill="none" stroke="black" points="182,-136.5 302,-136.5 "/>
<text text-anchor="start" x="190" y="-124.5" font-family="monospace" font-size="10.00">hasNext() bool</text>
<text text-anchor="start" x="190" y="-113.5" font-family="monospace" font-size="10.00">next() interface{}</text>
</g>
<!-- BookShelf&#45;&gt;BookShelfIterator -->
<g id="edge5" class="edge"><title>BookShelf&#45;&gt;BookShelfIterator</title>
<path fill="none" stroke="black" d="M120.254,-146C136.816,-146 153.377,-146 169.939,-146"/>
<polygon fill="black" stroke="black" points="110.15,-146 120.15,-141.5 115.15,-146 120.15,-146 120.15,-146 120.15,-146 115.15,-146 120.15,-150.5 110.15,-146 110.15,-146"/>
<polygon fill="none" stroke="black" points="169.998,-146 175.998,-142 181.998,-146 175.998,-150 169.998,-146"/>
</g>
<!-- Iterator&#45;&gt;BookShelfIterator -->
<g id="edge3" class="edge"><title>Iterator&#45;&gt;BookShelfIterator</title>
<path fill="none" stroke="black" d="M242,-224.026C242,-211.491 242,-197.904 242,-185.681"/>
<polygon fill="none" stroke="black" points="242,-234.254 245.5,-224.254 242,-224.254 242,-234.254"/>
</g>
</g>
</svg>
