<?xml version="1.0" encoding="UTF-8" standalone="no"?>
<!DOCTYPE svg PUBLIC "-//W3C//DTD SVG 1.1//EN"
 "http://www.w3.org/Graphics/SVG/1.1/DTD/svg11.dtd">
<!-- Generated by graphviz version 2.38.0 (20140413.2041)
 -->
<!-- Title: iterator Pages: 1 -->
<svg width="365pt" height="193pt"
 viewBox="0.00 0.00 364.71 193.04" xmlns="http://www.w3.org/2000/svg" xmlns:xlink="http://www.w3.org/1999/xlink">
<g id="graph0" class="graph" transform="scale(1 1) rotate(0) translate(4 189.035)">
<title>iterator</title>
<polygon fill="white" stroke="none" points="-4,4 -4,-189.035 360.708,-189.035 360.708,4 -4,4"/>
<!-- Main -->
<g id="node1" class="node"><title>Main</title>
<polygon fill="none" stroke="black" points="21.2705,-148.535 21.2705,-184.535 75.2705,-184.535 75.2705,-148.535 21.2705,-148.535"/>
<text text-anchor="middle" x="48.0464" y="-162.335" font-family="Times,serif" font-size="14.00">Main</text>
</g>
<!-- Print -->
<g id="node2" class="node"><title>Print</title>
<polygon fill="none" stroke="black" points="0,-0.5 0,-94.5 96.541,-94.5 96.541,-0.5 0,-0.5"/>
<text text-anchor="middle" x="48.2705" y="-79.3" font-family="Times,serif" font-size="14.00">&lt;&lt;interface&gt;&gt;</text>
<text text-anchor="middle" x="48.2705" y="-65.3" font-family="Times,serif" font-size="14.00">Print</text>
<polyline fill="none" stroke="black" points="0,-58.5 96.541,-58.5 "/>
<text text-anchor="middle" x="48.2705" y="-43.3" font-family="Times,serif" font-size="14.00"> </text>
<polyline fill="none" stroke="black" points="0,-36.5 96.541,-36.5 "/>
<text text-anchor="middle" x="48.2705" y="-21.3" font-family="Times,serif" font-size="14.00">printWeak</text>
<text text-anchor="middle" x="48.2705" y="-7.3" font-family="Times,serif" font-size="14.00">printStrong</text>
</g>
<!-- Main&#45;&gt;Print -->
<g id="edge1" class="edge"><title>Main&#45;&gt;Print</title>
<path fill="none" stroke="black" d="M48.2705,-148.517C48.2705,-136.92 48.2705,-120.842 48.2705,-104.966"/>
<polygon fill="black" stroke="black" points="48.2705,-94.6117 52.7706,-104.612 48.2706,-99.6117 48.2706,-104.612 48.2706,-104.612 48.2706,-104.612 48.2706,-99.6117 43.7706,-104.612 48.2705,-94.6117 48.2705,-94.6117"/>
<text text-anchor="middle" x="69.79" y="-118.835" font-family="Times,serif" font-size="14.00">Uses ▶</text>
</g>
<!-- PrintBanner -->
<g id="node3" class="node"><title>PrintBanner</title>
<polygon fill="none" stroke="black" points="132.443,-7.5 132.443,-87.5 216.098,-87.5 216.098,-7.5 132.443,-7.5"/>
<text text-anchor="middle" x="174.271" y="-72.3" font-family="Times,serif" font-size="14.00">PrintBanner</text>
<polyline fill="none" stroke="black" points="132.443,-65.5 216.098,-65.5 "/>
<text text-anchor="middle" x="174.271" y="-50.3" font-family="Times,serif" font-size="14.00"> </text>
<polyline fill="none" stroke="black" points="132.443,-43.5 216.098,-43.5 "/>
<text text-anchor="middle" x="174.271" y="-28.3" font-family="Times,serif" font-size="14.00">printWeak</text>
<text text-anchor="middle" x="174.271" y="-14.3" font-family="Times,serif" font-size="14.00">printStrong</text>
</g>
<!-- Print&#45;&gt;PrintBanner -->
<g id="edge2" class="edge"><title>Print&#45;&gt;PrintBanner</title>
<path fill="none" stroke="black" stroke-dasharray="1,5" d="M107.206,-47.5C115.575,-47.5 123.944,-47.5 132.313,-47.5"/>
<polygon fill="none" stroke="black" points="106.997,-44.0001 96.9971,-47.5 106.997,-51.0001 106.997,-44.0001"/>
</g>
<!-- Banner -->
<g id="node4" class="node"><title>Banner</title>
<polygon fill="none" stroke="black" points="251.833,-7.5 251.833,-87.5 356.708,-87.5 356.708,-7.5 251.833,-7.5"/>
<text text-anchor="middle" x="304.271" y="-72.3" font-family="Times,serif" font-size="14.00">Banner</text>
<polyline fill="none" stroke="black" points="251.833,-65.5 356.708,-65.5 "/>
<text text-anchor="middle" x="304.271" y="-50.3" font-family="Times,serif" font-size="14.00"> </text>
<polyline fill="none" stroke="black" points="251.833,-43.5 356.708,-43.5 "/>
<text text-anchor="middle" x="304.271" y="-28.3" font-family="Times,serif" font-size="14.00">showWithParen</text>
<text text-anchor="middle" x="304.271" y="-14.3" font-family="Times,serif" font-size="14.00">showWithAster</text>
</g>
<!-- PrintBanner&#45;&gt;Banner -->
<g id="edge3" class="edge"><title>PrintBanner&#45;&gt;Banner</title>
<path fill="none" stroke="black" d="M216.165,-47.5C224.566,-47.5 232.966,-47.5 241.367,-47.5"/>
<polygon fill="none" stroke="black" points="241.614,-51.0001 251.614,-47.5 241.614,-44.0001 241.614,-51.0001"/>
</g>
</g>
</svg>
